HIERARCHY
ROOT Model
{
	OFFSET 0 0 0
	CHANNELS 6 Xposition Yposition Zposition Zrotation Xrotation Yrotation
	JOINT Model1
	{
		OFFSET 0 -2.25479 2.99384
		CHANNELS 3 Zrotation Xrotation Yrotation
		JOINT Model2
		{
			OFFSET 12.111 0 0
			CHANNELS 3 Zrotation Xrotation Yrotation
			JOINT Model3
			{
				OFFSET 11.5502 0 0
				CHANNELS 3 Zrotation Xrotation Yrotation
				JOINT Model4
				{
					OFFSET 11.781 0 0
					CHANNELS 3 Zrotation Xrotation Yrotation
					JOINT Model5
					{
						OFFSET 20.0601 0 0
						CHANNELS 3 Zrotation Xrotation Yrotation
						JOINT Model6
						{
							OFFSET 11.1962 0 0
							CHANNELS 3 Zrotation Xrotation Yrotation
							End Site
							{
								OFFSET 0 0 0
							}
						}
					}
					JOINT Model7
					{
						OFFSET 10.8223 0.417534 3.51114
						CHANNELS 3 Zrotation Xrotation Yrotation
						JOINT Model8
						{
							OFFSET -6.07944 0 0
							CHANNELS 3 Zrotation Xrotation Yrotation
							JOINT Model9
							{
								OFFSET -0.277405 10.39 -0.051239
								CHANNELS 3 Zrotation Xrotation Yrotation
								JOINT Model10
								{
									OFFSET -3.43909 -0.282043 1.86679
									CHANNELS 3 Zrotation Xrotation Yrotation
									JOINT Model11
									{
										OFFSET 13.0269 0 0
										CHANNELS 3 Zrotation Xrotation Yrotation
										JOINT Model12
										{
											OFFSET 10.8866 0 0
											CHANNELS 3 Zrotation Xrotation Yrotation
											JOINT Model13
											{
												OFFSET 16.7317 0 0
												CHANNELS 3 Zrotation Xrotation Yrotation
												JOINT Model14
												{
													OFFSET 11.8292 0 0
													CHANNELS 3 Zrotation Xrotation Yrotation
													JOINT Model15
													{
														OFFSET 4.82751 -3.73566 -0.836517
														CHANNELS 3 Zrotation Xrotation Yrotation
														JOINT Model16
														{
															OFFSET 3.75311 -0.0582886 -0.0186462
															CHANNELS 3 Zrotation Xrotation Yrotation
															JOINT Model17
															{
																OFFSET 2.88689 0.0192337 0.014801
																CHANNELS 3 Zrotation Xrotation Yrotation
																End Site
																{
																	OFFSET 0 0 0
																}
															}
														}
													}
													JOINT Model18
													{
														OFFSET 9.72197 -3.06458 0.23877
														CHANNELS 3 Zrotation Xrotation Yrotation
														JOINT Model19
														{
															OFFSET 4.61131 0 0
															CHANNELS 3 Zrotation Xrotation Yrotation
															JOINT Model20
															{
																OFFSET 2.8969 -7.62939e-006 0
																CHANNELS 3 Zrotation Xrotation Yrotation
																End Site
																{
																	OFFSET 0 0 0
																}
															}
														}
													}
													JOINT Model21
													{
														OFFSET 9.54431 -0.745064 0.588928
														CHANNELS 3 Zrotation Xrotation Yrotation
														JOINT Model22
														{
															OFFSET 5.33978 0 0
															CHANNELS 3 Zrotation Xrotation Yrotation
															JOINT Model23
															{
																OFFSET 3.03619 7.62939e-006 0
																CHANNELS 3 Zrotation Xrotation Yrotation
																End Site
																{
																	OFFSET 0 0 0
																}
															}
														}
													}
													JOINT Model24
													{
														OFFSET 9.47758 1.51286 0.485107
														CHANNELS 3 Zrotation Xrotation Yrotation
														JOINT Model25
														{
															OFFSET 4.96136 7.62939e-006 0
															CHANNELS 3 Zrotation Xrotation Yrotation
															JOINT Model26
															{
																OFFSET 2.51965 0 0
																CHANNELS 3 Zrotation Xrotation Yrotation
																End Site
																{
																	OFFSET 0 0 0
																}
															}
														}
													}
													JOINT Model27
													{
														OFFSET 9.34247 3.34117 -0.239288
														CHANNELS 3 Zrotation Xrotation Yrotation
														JOINT Model28
														{
															OFFSET 3.28259 2.28882e-005 0
															CHANNELS 3 Zrotation Xrotation Yrotation
															JOINT Model29
															{
																OFFSET 2.1292 0 0
																CHANNELS 3 Zrotation Xrotation Yrotation
																End Site
																{
																	OFFSET 0 0 0
																}
															}
														}
													}
												}
											}
										}
									}
								}
							}
						}
					}
					JOINT Model30
					{
						OFFSET 10.8223 0.4179 -3.51108
						CHANNELS 3 Zrotation Xrotation Yrotation
						JOINT Model31
						{
							OFFSET 6.07944 0 0
							CHANNELS 3 Zrotation Xrotation Yrotation
							JOINT Model32
							{
								OFFSET 0.277405 -10.39 0.051239
								CHANNELS 3 Zrotation Xrotation Yrotation
								JOINT Model33
								{
									OFFSET 3.43909 0.282043 -1.86679
									CHANNELS 3 Zrotation Xrotation Yrotation
									JOINT Model34
									{
										OFFSET -13.0269 0 0
										CHANNELS 3 Zrotation Xrotation Yrotation
										JOINT Model35
										{
											OFFSET -10.8866 0 0
											CHANNELS 3 Zrotation Xrotation Yrotation
											JOINT Model36
											{
												OFFSET -16.7317 0 0
												CHANNELS 3 Zrotation Xrotation Yrotation
												JOINT Model37
												{
													OFFSET -11.8292 0 0
													CHANNELS 3 Zrotation Xrotation Yrotation
													JOINT Model38
													{
														OFFSET -4.82751 3.73566 0.836517
														CHANNELS 3 Zrotation Xrotation Yrotation
														JOINT Model39
														{
															OFFSET -3.75311 0.0582886 0.0186462
															CHANNELS 3 Zrotation Xrotation Yrotation
															JOINT Model40
															{
																OFFSET -2.88687 -0.0192337 -0.014801
																CHANNELS 3 Zrotation Xrotation Yrotation
																End Site
																{
																	OFFSET 0 0 0
																}
															}
														}
													}
													JOINT Model41
													{
														OFFSET -9.72198 3.06459 -0.23877
														CHANNELS 3 Zrotation Xrotation Yrotation
														JOINT Model42
														{
															OFFSET -4.6113 0 0
															CHANNELS 3 Zrotation Xrotation Yrotation
															JOINT Model43
															{
																OFFSET -2.89691 0 0
																CHANNELS 3 Zrotation Xrotation Yrotation
																End Site
																{
																	OFFSET 0 0 0
																}
															}
														}
													}
													JOINT Model44
													{
														OFFSET -9.54431 0.745064 -0.588928
														CHANNELS 3 Zrotation Xrotation Yrotation
														JOINT Model45
														{
															OFFSET -5.33978 0 0
															CHANNELS 3 Zrotation Xrotation Yrotation
															JOINT Model46
															{
																OFFSET -3.03619 -1.52588e-005 0
																CHANNELS 3 Zrotation Xrotation Yrotation
																End Site
																{
																	OFFSET 0 0 0
																}
															}
														}
													}
													JOINT Model47
													{
														OFFSET -9.4776 -1.51286 -0.485107
														CHANNELS 3 Zrotation Xrotation Yrotation
														JOINT Model48
														{
															OFFSET -4.96136 -1.52588e-005 0
															CHANNELS 3 Zrotation Xrotation Yrotation
															JOINT Model49
															{
																OFFSET -2.51965 0 0
																CHANNELS 3 Zrotation Xrotation Yrotation
																End Site
																{
																	OFFSET 0 0 0
																}
															}
														}
													}
													JOINT Model50
													{
														OFFSET -9.34247 -3.34118 0.239288
														CHANNELS 3 Zrotation Xrotation Yrotation
														JOINT Model51
														{
															OFFSET -3.28259 -2.28882e-005 0
															CHANNELS 3 Zrotation Xrotation Yrotation
															JOINT Model52
															{
																OFFSET -2.12921 0 0
																CHANNELS 3 Zrotation Xrotation Yrotation
																End Site
																{
																	OFFSET 0 0 0
																}
															}
														}
													}
												}
											}
										}
									}
								}
							}
						}
					}
				}
			}
		}
	}
	JOINT Model53
	{
		OFFSET 4.38025 -2.14632 -1.11517
		CHANNELS 3 Zrotation Xrotation Yrotation
		JOINT Model54
		{
			OFFSET 0 0 4.94998
			CHANNELS 3 Zrotation Xrotation Yrotation
			JOINT Model55
			{
				OFFSET 18.5642 0 0
				CHANNELS 3 Zrotation Xrotation Yrotation
				JOINT Model56
				{
					OFFSET 21.2884 0 0
					CHANNELS 3 Zrotation Xrotation Yrotation
					JOINT Model57
					{
						OFFSET 30.261 0 0
						CHANNELS 3 Zrotation Xrotation Yrotation
						JOINT Model58
						{
							OFFSET 11.7259 0 0
							CHANNELS 3 Zrotation Xrotation Yrotation
							JOINT Model59
							{
								OFFSET 10.682 0 0
								CHANNELS 3 Zrotation Xrotation Yrotation
								End Site
								{
									OFFSET 0 0 0
								}
							}
						}
					}
				}
			}
		}
	}
	JOINT Model60
	{
		OFFSET -4.38025 -2.14632 -1.11517
		CHANNELS 3 Zrotation Xrotation Yrotation
		JOINT Model61
		{
			OFFSET 0 0 -4.94998
			CHANNELS 3 Zrotation Xrotation Yrotation
			JOINT Model62
			{
				OFFSET -18.5642 0 0
				CHANNELS 3 Zrotation Xrotation Yrotation
				JOINT Model63
				{
					OFFSET -21.2884 0 0
					CHANNELS 3 Zrotation Xrotation Yrotation
					JOINT Model64
					{
						OFFSET -30.261 0 0
						CHANNELS 3 Zrotation Xrotation Yrotation
						JOINT Model65
						{
							OFFSET -11.7259 0 0
							CHANNELS 3 Zrotation Xrotation Yrotation
							JOINT Model66
							{
								OFFSET -10.682 0 0
								CHANNELS 3 Zrotation Xrotation Yrotation
								End Site
								{
									OFFSET 0 0 0
								}
							}
						}
					}
				}
			}
		}
	}
}
MOTION
Frames: 4
Frame Time: 0.033333
-341.302 175.071 -363.279 12.7737 -67.2666 18.0786 -180 4.29621e-031 -90 3.02495 -1.61178 1.22055 6.08706 -3.15693 2.52596 6.08705 -3.15649 2.52591 11.757 10.8362 -2.94306 17.0142 9.75153 -8.29269 120.092 75.5343 58.4939 -9.0698 10.9537 6.20051 -167.277 84.4999 48.8109 154.703 -5.23052 20.75 5.90072e-006 11.2678 3.09404e-005 -39.47 4.2057 0.387972 -2.5155e-007 5.71552 -7.26608e-007 -7.41414 0.200813 -3.09863 -72.0648 39.0385 39.3397 33.3638 2.10362 14.835 0.588947 0.308273 6.35287 -99.6409 81.413 100.35 -0.0181409 2.779e-005 -0.117315 -0.124139 0.00241113 -0.799296 -79.8382 79.5773 80.5374 -0.000225786 -0.000220911 2.21857e-005 -0.000956239 0.00012291 -2.73326e-005 -66.7416 80.4058 67.2171 -0.000437142 1.59567e-005 -2.73292e-005 -0.000136617 -0.000109276 -5.4653e-005 -6.42159 81.2158 8.01779 -0.000218578 1.69129e-005 0.000212132 0.000901568 -0.000184795 -0.000218578 -59.9282 75.5373 58.5147 -12.3422 1.96223 3.3541 -167.277 84.4999 48.8109 -155.64 3.06287 22.0964 -2.05436e-007 13.779 3.00137e-005 -69.3977 -0.942331 0.570205 -3.59277e-006 -2.0519 1.54687e-006 7.36394 0.107204 1.66577 -72.0648 39.0385 39.3397 33.3638 2.10361 14.835 0.588946 0.308273 6.35287 -99.6409 81.413 100.35 -0.0181409 3.00756e-005 -0.117315 -0.124139 0.00241113 -0.799296 -79.8382 79.5773 80.5374 -0.00026065 -0.000218568 2.35731e-005 -0.000956231 0.000122993 -2.73171e-005 -66.7416 80.4058 67.2171 -0.000437136 1.48787e-005 -2.73178e-005 -0.000136609 -0.000109287 -5.46375e-005 -6.42159 81.2158 8.01779 -0.00021857 1.95749e-005 0.0002123 0.000901577 -0.000191251 -0.000218561 0.000811311 0.56661 89.91 -12.0404 -5.21063 2.01715 1.2808e-007 -9.08677 2.09197e-010 54.6247 1.51446 -0.00678957 -1.11194e-007 2.17338 -1.23155e-007 -53.0942 -8.58458 5.81283 -35.4947 4.15921e-007 2.64274e-007 -180 -0.566579 -90.09 -52.7858 1.76628 1.99825 -4.72315e-007 2.55873 -1.24409e-008 28.6596 -0.426859 -0.0148585 2.7744e-007 -0.693694 -3.54325e-007 -54.7684 -11.0784 7.2965 -35.4947 4.08181e-006 -4.14576e-007 
-336.334 172.972 -355.689 8.64866 -68.6074 14.1903 -180 4.29621e-031 -90 2.39639 -0.700071 1.33843 4.80899 -1.34381 2.70525 4.80899 -1.34337 2.70521 11.4114 10.3873 -4.45631 18.5539 9.23361 -5.66735 120.092 75.5343 58.4939 -13.9165 6.55498 5.70129 -167.277 84.4999 48.8109 159.892 -2.0941 24.0836 4.0004e-006 14.6741 3.13671e-005 -29.2183 5.97035 0.0964014 -2.16192e-007 8.47419 -7.30976e-007 -9.01169 0.256627 -3.25563 -72.0648 39.0385 39.3397 33.3638 2.10362 14.835 0.588947 0.308273 6.35287 -99.6409 81.413 100.35 -0.0181409 2.779e-005 -0.117315 -0.124139 0.00241113 -0.799296 -79.8382 79.5773 80.5374 -0.000225786 -0.000220911 2.21857e-005 -0.000956239 0.00012291 -2.73326e-005 -66.7416 80.4058 67.2171 -0.000437142 1.59567e-005 -2.73292e-005 -0.000136617 -0.000109276 -5.4653e-005 -6.42159 81.2158 8.01779 -0.000218578 1.69129e-005 0.000212132 0.000901568 -0.000184795 -0.000218578 -59.9282 75.5373 58.5147 -14.3525 3.5249 4.46754 -167.277 84.4999 48.8109 -163.446 1.93428 23.7796 4.14191e-007 12.6247 2.98722e-005 -64.1334 0.726816 0.548038 -3.65972e-006 0.428605 1.54592e-006 7.77116 0.200278 2.94803 -72.0648 39.0385 39.3397 33.3638 2.10361 14.835 0.588946 0.308273 6.35287 -99.6409 81.413 100.35 -0.0181409 3.00756e-005 -0.117315 -0.124139 0.00241113 -0.799296 -79.8382 79.5773 80.5374 -0.00026065 -0.000218568 2.35731e-005 -0.000956231 0.000122993 -2.73171e-005 -66.7416 80.4058 67.2171 -0.000437136 1.48787e-005 -2.73178e-005 -0.000136609 -0.000109287 -5.46375e-005 -6.42159 81.2158 8.01779 -0.00021857 1.95749e-005 0.0002123 0.000901577 -0.000191251 -0.000218561 0.000811311 0.56661 89.91 -16.9482 -8.2974 -4.54094 1.28083e-007 -9.65226 2.09538e-010 67.7517 2.15812 -0.00769633 -1.09147e-007 3.12423 -1.23249e-007 -53.9752 -8.43525 5.57256 -35.4947 4.34192e-007 2.07396e-007 -180 -0.566579 -90.09 -53.291 1.56259 2.30113 -4.72385e-007 2.23786 -1.2438e-008 39.6796 -0.145119 -0.284529 2.79921e-007 -0.292465 -3.54304e-007 -61.248 -4.34757 2.00443 -35.4947 3.28233e-006 -2.29954e-007 
-331.634 171.686 -348.554 4.08363 -69.291 10.2265 -180 4.29621e-031 -90 1.81601 0.196776 1.26267 3.62731 0.432979 2.51849 3.62731 0.433415 2.51846 11.9025 9.61689 -5.4153 19.2934 8.57497 -3.28737 120.092 75.5343 58.4939 -15.0338 2.916 4.34687 -167.277 84.4999 48.8109 166.227 5.15325 24.074 -1.90911e-006 24.542 3.33576e-005 -25.5937 1.81817 -2.87863 -2.94907e-007 2.29731 -7.23577e-007 -9.3894 0.35295 -4.29587 -72.0648 39.0385 39.3397 33.3638 2.10362 14.835 0.588947 0.308273 6.35287 -99.6409 81.413 100.35 -0.0181409 2.779e-005 -0.117315 -0.124139 0.00241113 -0.799296 -79.8382 79.5773 80.5374 -0.000225786 -0.000220911 2.21857e-005 -0.000956239 0.00012291 -2.73326e-005 -66.7416 80.4058 67.2171 -0.000437142 1.59567e-005 -2.73292e-005 -0.000136617 -0.000109276 -5.4653e-005 -6.42159 81.2158 8.01779 -0.000218578 1.69129e-005 0.000212132 0.000901568 -0.000184795 -0.000218578 -59.9282 75.5373 58.5147 -14.1426 5.56911 5.32357 -167.277 84.4999 48.8109 -170.804 2.84024 25.766 -6.61341e-007 14.6212 3.01256e-005 -66.6371 2.40343 0.559503 -3.7279e-006 2.95298 1.54793e-006 5.97117 0.149695 2.86953 -72.0648 39.0385 39.3397 33.3638 2.10361 14.835 0.588946 0.308273 6.35287 -99.6409 81.413 100.35 -0.0181409 3.00756e-005 -0.117315 -0.124139 0.00241113 -0.799296 -79.8382 79.5773 80.5374 -0.00026065 -0.000218568 2.35731e-005 -0.000956231 0.000122993 -2.73171e-005 -66.7416 80.4058 67.2171 -0.000437136 1.48787e-005 -2.73178e-005 -0.000136609 -0.000109287 -5.46375e-005 -6.42159 81.2158 8.01779 -0.00021857 1.95749e-005 0.0002123 0.000901577 -0.000191251 -0.000218561 0.000811311 0.56661 89.91 -25.9708 -9.57094 -13.0842 1.28077e-007 -8.17484 2.08692e-010 78.4883 2.6321 -0.00814167 -1.0763e-007 3.82809 -1.23341e-007 -55.0106 -5.83644 3.6145 -35.4947 4.32892e-007 9.5714e-008 -180 -0.566579 -90.09 -50.4038 1.90257 1.21738 -4.72262e-007 2.80326 -1.24434e-008 45.2503 0.294446 -0.141843 2.83939e-007 0.357257 -3.54306e-007 -67.2457 -2.85489 0.668611 -35.4947 4.19099e-007 1.24644e-007 
-326.738 171.624 -341.65 3.57745 -69.3512 9.94874 -180 4.29621e-031 -90 1.50959 0.710301 0.925064 3.00789 1.4442 1.83131 3.00789 1.44463 1.83129 12.7742 8.13184 -4.78379 19.4286 7.38869 -1.51085 120.092 75.5343 58.4939 -12.8215 0.91585 3.0015 -167.277 84.4999 48.8109 176.535 7.5086 20.6226 -3.7033e-006 27.282 3.41419e-005 -31.3639 0.328704 0.316984 -3.2411e-007 -0.0157009 -7.22996e-007 -8.83593 0.395278 -5.11274 -72.0648 39.0385 39.3397 33.3638 2.10362 14.835 0.588947 0.308273 6.35287 -99.6409 81.413 100.35 -0.0181409 2.779e-005 -0.117315 -0.124139 0.00241113 -0.799296 -79.8382 79.5773 80.5374 -0.000225786 -0.000220911 2.21857e-005 -0.000956239 0.00012291 -2.73326e-005 -66.7416 80.4058 67.2171 -0.000437142 1.59567e-005 -2.73292e-005 -0.000136617 -0.000109276 -5.4653e-005 -6.42159 81.2158 8.01779 -0.000218578 1.69129e-005 0.000212132 0.000901568 -0.000184795 -0.000218578 -59.9282 75.5373 58.5147 -10.0153 7.47385 5.0905 -167.277 84.4999 48.8109 179.941 4.57674 27.781 -2.99563e-006 18.827 3.07977e-005 -74.622 4.31036 0.588778 -3.8069e-006 5.86318 1.554e-006 2.33067 -0.0316821 -1.55745 -72.0648 39.0385 39.3397 33.3638 2.10361 14.835 0.588946 0.308273 6.35287 -99.6409 81.413 100.35 -0.0181409 3.00756e-005 -0.117315 -0.124139 0.00241113 -0.799296 -79.8382 79.5773 80.5374 -0.00026065 -0.000218568 2.35731e-005 -0.000956231 0.000122993 -2.73171e-005 -66.7416 80.4058 67.2171 -0.000437136 1.48787e-005 -2.73178e-005 -0.000136609 -0.000109287 -5.46375e-005 -6.42159 81.2158 8.01779 -0.00021857 1.95749e-005 0.0002123 0.000901577 -0.000191251 -0.000218561 0.000811311 0.56661 89.91 -37.1439 -7.75752 -19.7948 1.28067e-007 -5.34704 2.07474e-010 83.6181 3.01144 -0.00826382 -1.06405e-007 4.39533 -1.23429e-007 -56.0775 -1.95932 0.852499 -35.4947 4.18069e-007 -5.00184e-008 -180 -0.566579 -90.09 -44.5231 1.85164 -1.97334 -4.72153e-007 3.30269 -1.24492e-008 44.7808 0.912494 -0.301492 2.89678e-007 1.28513 -3.54389e-007 -71.374 -5.35215 1.64922 -36.0061 0.11903 -0.0450266 
